<mxfile host="app.diagrams.net" modified="2023-11-13T22:46:39.658Z" agent="Mozilla/5.0 (Windows NT 10.0; Win64; x64; rv:120.0) Gecko/20100101 Firefox/120.0" version="22.1.0" etag="MijyqoZ88DvNsCxWzQQn" type="github">
  <diagram name="Page-1" id="GO0gGOiDeLcoUAAxdGLL">
    <mxGraphModel>
      <root>
        <mxCell id="0" />
        <mxCell id="1" parent="0" />
      </root>
    </mxGraphModel>
  </diagram>
</mxfile>
